<?xml version="1.0" encoding="UTF-8"?>
<svg version="1.1" xmlns="http://www.w3.org/2000/svg" width="60" height="57">
<path d="M0 0 C0.87709122 0.00091141 1.75418243 0.00182281 2.65785217 0.00276184 C3.5579451 -0.00152328 4.45803802 -0.00580841 5.38540649 -0.01022339 C7.29107318 -0.01597221 9.19676182 -0.0164629 11.10243225 -0.01213074 C14.02167652 -0.00897322 16.93990536 -0.03241424 19.85902405 -0.05778503 C21.70863214 -0.06005818 23.55824297 -0.06076145 25.40785217 -0.05973816 C26.28291916 -0.06894791 27.15798615 -0.07815765 28.05957031 -0.08764648 C28.87373917 -0.08141769 29.68790802 -0.0751889 30.52674866 -0.06877136 C31.24241501 -0.06940079 31.95808136 -0.07003021 32.69543457 -0.07067871 C35.17628363 0.41696504 36.09241548 1.30432749 37.59925842 3.30354309 C37.35472718 6.64547001 36.99382285 7.90897867 34.59925842 10.30354309 C32.09925842 10.24104309 32.09925842 10.24104309 29.59925842 9.30354309 C28.93925842 7.65354309 28.27925842 6.00354309 27.59925842 4.30354309 C23.96925842 4.30354309 20.33925842 4.30354309 16.59925842 4.30354309 C16.59925842 10.24354309 16.59925842 16.18354309 16.59925842 22.30354309 C19.23925842 22.30354309 21.87925842 22.30354309 24.59925842 22.30354309 C26.59925842 23.80354309 26.59925842 23.80354309 27.59925842 25.30354309 C27.26925842 25.96354309 26.93925842 26.62354309 26.59925842 27.30354309 C18.01925842 27.30354309 9.43925842 27.30354309 0.59925842 27.30354309 C2.59925842 23.30354309 2.59925842 23.30354309 3.59925842 22.30354309 C6.56925842 22.30354309 9.53925842 22.30354309 12.59925842 22.30354309 C12.59925842 16.36354309 12.59925842 10.42354309 12.59925842 4.30354309 C8.63925842 4.30354309 4.67925842 4.30354309 0.59925842 4.30354309 C0.26925842 5.62354309 -0.06074158 6.94354309 -0.40074158 8.30354309 C-1.06074158 8.96354309 -1.72074158 9.62354309 -2.40074158 10.30354309 C-5.6978895 9.9738283 -7.02342548 9.68085919 -9.40074158 7.30354309 C-8.73924502 0.68857751 -6.33755431 0.07448632 0 0 Z " fill="#CFBD8F" transform="translate(15.400741577148438,19.696456909179688)"/>
<path d="M0 0 C2.6875 2.8125 2.6875 2.8125 5 6 C4.67 6.99 4.34 7.98 4 9 C7.68754757 8.50168276 9.60490662 7.89932357 12 5 C14.62187494 6.04874998 15.79371361 6.64931313 17.25 9.125 C17.4975 9.74375 17.745 10.3625 18 11 C16 13 16 13 12.56005859 13.22705078 C11.08948021 13.22673369 9.61887858 13.21540987 8.1484375 13.1953125 C7.37440582 13.1924826 6.60037415 13.18965271 5.80288696 13.18673706 C3.32676843 13.17552754 0.8510095 13.15042203 -1.625 13.125 C-3.30207812 13.11497118 -4.97916189 13.10584516 -6.65625 13.09765625 C-10.77097223 13.07558574 -14.88542511 13.04105102 -19 13 C-19.66 11.68 -20.32 10.36 -21 9 C-19.1875 7 -19.1875 7 -17 5 C-16.01 5 -15.02 5 -14 5 C-13.54625 5.66 -13.0925 6.32 -12.625 7 C-12.08875 7.66 -11.5525 8.32 -11 9 C-8.37374861 9.33425735 -8.37374861 9.33425735 -6 9 C-6.66 8.01 -7.32 7.02 -8 6 C-7.0479279 4.99403703 -6.08812654 3.99538437 -5.125 3 C-4.59132813 2.443125 -4.05765625 1.88625 -3.5078125 1.3125 C-2 0 -2 0 0 0 Z " fill="#CAB783" transform="translate(31,5)"/>
<path d="M0 0 C4.6447121 -0.0988803 9.28881173 -0.1714715 13.93432617 -0.21972656 C15.51451285 -0.23984186 17.09462509 -0.26713804 18.67456055 -0.30175781 C20.94598748 -0.35028343 23.21643058 -0.37296809 25.48828125 -0.390625 C26.54780754 -0.42159271 26.54780754 -0.42159271 27.6287384 -0.45318604 C29.63012695 -0.45410156 29.63012695 -0.45410156 33 0 C33.99 1.32 34.98 2.64 36 4 C23.46 4 10.92 4 -2 4 C-1.34 2.68 -0.68 1.36 0 0 Z " fill="#C8B37E" transform="translate(13,48)"/>
<path d="M0 0 C0.66 0.33 1.32 0.66 2 1 C2.33 6.61 2.66 12.22 3 18 C5.64 18 8.28 18 11 18 C13 19.5 13 19.5 14 21 C13.67 21.66 13.34 22.32 13 23 C4.42 23 -4.16 23 -13 23 C-11 19 -11 19 -10 18 C-7.03 18 -4.06 18 -1 18 C-0.505 9.09 -0.505 9.09 0 0 Z " fill="#C7B37D" transform="translate(29,24)"/>
<path d="M0 0 C1.6875 2.5 1.6875 2.5 3 5 C1.824375 4.690625 1.824375 4.690625 0.625 4.375 C-0.674375 4.189375 -0.674375 4.189375 -2 4 C-2.66 4.66 -3.32 5.32 -4 6 C2.27 6 8.54 6 15 6 C15 5.34 15 4.68 15 4 C16.0725 4.0825 17.145 4.165 18.25 4.25 C22.04009265 4.36237217 22.04009265 4.36237217 24.4375 2 C24.953125 1.34 25.46875 0.68 26 0 C28.62187494 1.04874998 29.79371361 1.64931313 31.25 4.125 C31.4975 4.74375 31.745 5.3625 32 6 C30 8 30 8 26.56005859 8.22705078 C25.08948021 8.22673369 23.61887858 8.21540987 22.1484375 8.1953125 C21.37440582 8.1924826 20.60037415 8.18965271 19.80288696 8.18673706 C17.32676843 8.17552754 14.8510095 8.15042203 12.375 8.125 C10.69792188 8.11497118 9.02083811 8.10584516 7.34375 8.09765625 C3.22902777 8.07558574 -0.88542511 8.04105102 -5 8 C-5.66 6.68 -6.32 5.36 -7 4 C-3.375 0 -3.375 0 0 0 Z " fill="#CEBC8C" transform="translate(17,10)"/>
<path d="M0 0 C13.86 0 27.72 0 42 0 C43 6 43 6 41.875 7.9375 C40 9 40 9 37.4375 8.875 C35 8 35 8 33 5 C33 3.68 33 2.36 33 1 C31.56333984 1.12568359 31.56333984 1.12568359 30.09765625 1.25390625 C19.95703037 2.05739144 10.13314278 1.81516619 0 1 C0 0.67 0 0.34 0 0 Z " fill="#C7B37D" transform="translate(10,21)"/>
<path d="M0 0 C1.65 0 3.3 0 5 0 C5 4.62 5 9.24 5 14 C3.35 14 1.7 14 0 14 C0 9.38 0 4.76 0 0 Z " fill="#D0BE90" transform="translate(33,26)"/>
<path d="M0 0 C1.28132813 0.00902344 2.56265625 0.01804687 3.8828125 0.02734375 C4.87023438 0.03894531 5.85765625 0.05054687 6.875 0.0625 C6.875 0.7225 6.875 1.3825 6.875 2.0625 C3.245 2.0625 -0.385 2.0625 -4.125 2.0625 C-4.125 7.0125 -4.125 11.9625 -4.125 17.0625 C-4.455 17.0625 -4.785 17.0625 -5.125 17.0625 C-5.455 12.4425 -5.785 7.8225 -6.125 3.0625 C-6.455 7.0225 -6.785 10.9825 -7.125 15.0625 C-7.455 15.0625 -7.785 15.0625 -8.125 15.0625 C-8.455 10.4425 -8.785 5.8225 -9.125 1.0625 C-6.12186252 -0.43906874 -3.33432478 -0.03031204 0 0 Z " fill="#D3C398" transform="translate(36.125,21.9375)"/>
<path d="M0 0 C1.32 0 2.64 0 4 0 C4 4.62 4 9.24 4 14 C2.68 14 1.36 14 0 14 C0 9.38 0 4.76 0 0 Z " fill="#CBB785" transform="translate(22,26)"/>
<path d="M0 0 C1.32 0.66 2.64 1.32 4 2 C4 2.99 4 3.98 4 5 C2 7 2 7 -1.125 7.125 C-2.548125 7.063125 -2.548125 7.063125 -4 7 C-2.68 4.69 -1.36 2.38 0 0 Z " fill="#CBB886" transform="translate(43,10)"/>
<path d="M0 0 C1.68834592 0.60968047 3.35202764 1.28837557 5 2 C7.32597511 2.3813074 9.65912158 2.72460254 12 3 C12 3.33 12 3.66 12 4 C7.38 4 2.76 4 -2 4 C-2.33 3.34 -2.66 2.68 -3 2 C-2.01 1.34 -1.02 0.68 0 0 Z " fill="#C5B078" transform="translate(15,13)"/>
<path d="M0 0 C1.6875 2.5 1.6875 2.5 3 5 C1.35 4.67 -0.3 4.34 -2 4 C-2.99 5.32 -3.98 6.64 -5 8 C-5.66 6.68 -6.32 5.36 -7 4 C-3.375 0 -3.375 0 0 0 Z " fill="#D3C398" transform="translate(17,10)"/>
</svg>
